<?xml version="1.0" encoding="UTF-8" standalone="no"?>
<!DOCTYPE svg PUBLIC "-//W3C//DTD SVG 1.1//EN" "http://www.w3.org/Graphics/SVG/1.1/DTD/svg11.dtd">
<svg width="100%" height="100%" viewBox="0 0 13 13" version="1.1" xmlns="http://www.w3.org/2000/svg" xmlns:xlink="http://www.w3.org/1999/xlink" xml:space="preserve" xmlns:serif="http://www.serif.com/" style="fill-rule:evenodd;clip-rule:evenodd;">
    <path d="M6.5,12.5C9.814,12.5 12.5,9.814 12.5,6.5C12.5,3.186 9.814,0.5 6.5,0.5C3.186,0.5 0.5,3.186 0.5,6.5C0.5,9.814 3.186,12.5 6.5,12.5Z" style="fill:none;fill-rule:nonzero;stroke:rgb(46,133,255);stroke-width:1px;"/>
    <g id="Vector-1" transform="matrix(1,0,0,1,6.5,6.5)">
        <g transform="matrix(1,0,0,1,-0.5,-3.5)">
            <path d="M0,2L1,2L1,7L0,7L0,2ZM0,0L1,0L1,1L0,1L0,0Z" style="fill:rgb(46,133,255);"/>
        </g>
    </g>
</svg>
