<?xml version="1.0" encoding="UTF-8" standalone="no"?>
<!DOCTYPE svg PUBLIC "-//W3C//DTD SVG 1.1//EN" "http://www.w3.org/Graphics/SVG/1.1/DTD/svg11.dtd">
<svg width="100%" height="100%" viewBox="0 0 9 11" version="1.1" xmlns="http://www.w3.org/2000/svg" xmlns:xlink="http://www.w3.org/1999/xlink" xml:space="preserve" xmlns:serif="http://www.serif.com/" style="fill-rule:evenodd;clip-rule:evenodd;">
    <path d="M4.608,0.5C3.238,0.5 1.869,0.778 0.5,1.332L0.5,7C0.5,7.566 0.846,8.107 1.457,8.65C2.143,9.26 3.16,9.859 4.5,10.454C5.84,9.859 6.856,9.26 7.543,8.65C8.154,8.107 8.5,7.566 8.5,7L8.5,1.32C7.275,0.776 5.949,0.497 4.608,0.5Z" style="fill:none;stroke:rgb(46,133,255);stroke-width:1px;"/>
    <g id="Vector-1" transform="matrix(1,0,0,1,4,2.76758)">
        <path d="M0,2L1,2L1,5L0,5L0,2ZM0,0L1,0L1,1L0,1L0,0Z" style="fill:rgb(46,133,255);"/>
    </g>
</svg>
